<?xml version="1.0" standalone="no"?>
<!DOCTYPE svg PUBLIC "-//W3C//DTD SVG 20010904//EN"
 "http://www.w3.org/TR/2001/REC-SVG-20010904/DTD/svg10.dtd">
<svg version="1.0" xmlns="http://www.w3.org/2000/svg"
 width="1024.000000pt" height="1024.000000pt" viewBox="0 0 1024.000000 1024.000000"
 preserveAspectRatio="xMidYMid meet">

<g transform="translate(0.000000,1024.000000) scale(0.100000,-0.100000)"
fill="#000000" stroke="none">
<path d="M1883 7053 c9 -2 23 -2 30 0 6 3 -1 5 -18 5 -16 0 -22 -2 -12 -5z"/>
<path d="M2188 7053 c6 -2 18 -2 25 0 6 3 1 5 -13 5 -14 0 -19 -2 -12 -5z"/>
<path d="M1808 7043 c6 -2 18 -2 25 0 6 3 1 5 -13 5 -14 0 -19 -2 -12 -5z"/>
<path d="M2278 7043 c6 -2 18 -2 25 0 6 3 1 5 -13 5 -14 0 -19 -2 -12 -5z"/>
<path d="M2378 7023 c7 -3 16 -2 19 1 4 3 -2 6 -13 5 -11 0 -14 -3 -6 -6z"/>
<path d="M2418 7013 c7 -3 16 -2 19 1 4 3 -2 6 -13 5 -11 0 -14 -3 -6 -6z"/>
<path d="M2560 6970 c8 -5 20 -10 25 -10 6 0 3 5 -5 10 -8 5 -19 10 -25 10 -5
0 -3 -5 5 -10z"/>
<path d="M2620 6948 c14 -6 63 -31 110 -56 47 -25 81 -40 75 -34 -15 16 -156
89 -185 96 l-25 6 25 -12z"/>
<path d="M1297 6871 c-60 -36 -74 -50 -22 -23 39 20 85 52 75 51 -3 0 -26 -13
-53 -28z"/>
<path d="M2825 6843 c6 -5 46 -37 90 -70 138 -104 293 -282 361 -415 29 -56
29 -59 7 -51 -21 7 -54 39 -47 45 2 3 -5 13 -16 23 -15 14 -20 15 -20 4 -1 -8
-9 0 -18 17 -37 66 -196 274 -227 298 -31 24 -65 34 -65 20 0 -4 20 -30 45
-59 24 -29 50 -64 56 -79 7 -14 16 -26 20 -26 12 0 86 -160 112 -245 14 -44
33 -129 43 -190 19 -120 27 -380 14 -441 -30 -138 -55 -235 -71 -271 -10 -24
-16 -43 -13 -43 3 0 -2 -12 -10 -27 -8 -16 -38 -75 -66 -133 -29 -58 -60 -114
-71 -126 -10 -11 -19 -26 -19 -32 0 -18 -277 -295 -288 -288 -6 3 -12 2 -14
-2 -5 -14 -90 -68 -148 -95 -62 -28 -130 -52 -175 -61 -16 -3 -52 -11 -80 -17
-159 -36 -406 -23 -480 25 -11 7 -32 16 -47 20 -16 3 -28 11 -28 16 0 6 -6 10
-12 10 -15 0 -86 46 -136 88 -19 15 -38 29 -43 30 -5 2 -9 9 -9 15 -1 7 -18
26 -39 42 -21 17 -37 33 -35 37 3 4 -9 17 -26 29 -16 13 -30 29 -30 36 0 7 -4
13 -9 13 -10 0 -37 60 -33 73 1 5 -2 6 -8 2 -5 -3 -10 1 -10 10 0 8 -7 18 -15
21 -8 4 -12 10 -9 15 3 6 1 15 -4 22 -16 21 -52 132 -52 163 0 17 -5 35 -12
42 -7 7 -11 68 -12 184 -1 156 2 180 23 243 71 214 171 351 332 455 59 38 193
89 242 91 15 1 17 3 6 6 -29 7 -141 -27 -220 -68 -209 -109 -369 -347 -410
-613 -18 -116 -6 -324 25 -426 49 -159 141 -306 267 -426 202 -191 454 -284
774 -284 200 0 339 29 500 104 132 62 237 136 345 245 150 151 240 299 310
510 108 323 89 692 -50 988 -96 205 -288 422 -475 538 -16 10 -25 14 -20 8z
m513 -628 c-3 -3 -9 2 -12 12 -6 14 -5 15 5 6 7 -7 10 -15 7 -18z"/>
<path d="M1199 6809 l-24 -20 28 17 c15 9 27 18 27 20 0 8 -8 4 -31 -17z"/>
<path d="M2790 6806 c0 -6 80 -86 86 -86 2 0 4 7 4 14 0 8 -15 26 -32 39 -41
30 -58 40 -58 33z"/>
<path d="M1090 6729 l-45 -41 48 37 c41 33 53 45 45 45 -2 0 -23 -18 -48 -41z"/>
<path d="M1785 6710 c-27 -5 -68 -13 -90 -18 -120 -29 -353 -145 -445 -221
-78 -65 -250 -242 -250 -258 0 -7 -3 -13 -7 -13 -7 0 -97 -136 -99 -149 0 -3
-15 -36 -32 -72 -99 -203 -128 -540 -67 -774 57 -223 111 -348 220 -515 147
-225 339 -386 601 -503 83 -38 196 -71 216 -65 6 2 -20 12 -58 22 -89 23 -225
92 -341 173 -88 61 -132 99 -83 73 12 -6 25 -8 28 -4 4 4 1 9 -5 11 -17 6 -17
49 0 56 7 3 32 -13 56 -35 95 -85 250 -183 356 -223 91 -34 260 -75 305 -74
26 1 19 4 -24 10 -250 37 -474 149 -656 328 -276 274 -409 664 -357 1051 56
415 274 728 626 900 140 69 345 120 482 120 89 0 218 -28 295 -65 135 -65 267
-235 335 -433 33 -95 34 -100 34 -267 0 -155 -2 -179 -28 -270 -68 -248 -221
-449 -418 -551 -74 -38 -148 -55 -239 -55 -38 0 -72 -5 -76 -10 -3 -6 -19 -7
-35 -4 -16 4 -29 2 -29 -3 0 -12 77 -14 85 -2 4 6 23 7 45 4 83 -13 244 40
357 118 65 44 143 118 143 134 0 8 4 14 8 14 16 0 98 135 134 220 54 127 80
260 79 408 -1 67 -6 144 -11 170 -25 112 -95 301 -121 322 -3 3 -14 21 -24 40
-9 19 -33 51 -51 70 -102 106 -147 150 -155 150 -5 0 -26 15 -46 33 -48 42
-229 126 -308 144 -75 16 -283 24 -350 13z m-514 -2117 c13 -16 12 -17 -3 -4
-10 7 -18 15 -18 17 0 8 8 3 21 -13z m103 -132 c-3 -3 -12 3 -21 14 -8 11 -19
19 -24 17 -6 -1 -7 2 -4 9 5 7 15 3 31 -12 13 -12 21 -25 18 -28z"/>
<path d="M939 6593 c-105 -108 -143 -154 -211 -258 -203 -310 -299 -722 -257
-1103 47 -435 247 -833 557 -1108 209 -186 430 -303 702 -372 98 -25 120 -27
325 -27 175 0 237 4 304 18 396 86 720 304 937 632 70 105 80 148 43 181 -18
16 -37 19 -123 19 l-102 0 -95 -83 c-285 -248 -481 -340 -789 -370 l-105 -11
100 4 c270 10 484 100 728 307 148 124 167 138 198 138 16 0 29 -2 29 -5 0 -3
-22 -39 -49 -79 -112 -166 -367 -407 -508 -481 -21 -11 -44 -26 -52 -33 -7 -7
-26 -16 -42 -19 -16 -3 -34 -12 -40 -19 -6 -8 -16 -14 -21 -14 -5 0 -28 -9
-52 -19 -23 -11 -64 -25 -92 -31 -27 -7 -58 -16 -69 -21 -80 -38 -453 -40
-556 -4 -23 8 -44 13 -46 11 -3 -2 -29 7 -59 20 -30 13 -54 21 -54 18 0 -4 -7
-1 -15 6 -8 7 -15 10 -15 6 0 -4 -10 0 -23 9 -13 8 -27 12 -30 8 -4 -3 -7 0
-7 7 0 7 -3 10 -6 7 -4 -3 -16 -1 -28 5 -11 7 -23 13 -26 13 -10 2 -115 58
-120 64 -3 4 -18 12 -33 19 -15 6 -30 18 -33 26 -3 8 -26 25 -50 36 -24 12
-44 25 -44 30 0 4 -21 22 -47 39 -27 17 -62 45 -80 63 -17 18 -53 54 -79 81
-26 26 -44 47 -40 47 5 0 -2 9 -15 20 -13 10 -21 19 -17 20 5 0 -1 9 -12 20
-11 11 -20 29 -20 40 0 11 -5 20 -11 20 -5 0 -7 -6 -4 -12 4 -7 -3 -2 -14 12
-11 14 -21 30 -21 36 0 6 -11 24 -25 40 -14 16 -25 35 -25 41 0 17 -60 127
-71 131 -5 2 -9 11 -9 21 0 9 -13 54 -30 99 -16 46 -30 91 -30 102 0 11 -4 20
-9 20 -8 0 -16 37 -25 119 -2 19 -8 37 -14 40 -17 11 -30 193 -26 366 2 133 8
195 28 285 51 239 136 440 259 610 83 116 88 122 196 233 41 42 73 77 71 77
-3 0 -48 -44 -101 -97z"/>
<path d="M1853 6273 c26 -2 68 -2 95 0 26 2 4 3 -48 3 -52 0 -74 -1 -47 -3z"/>
<path d="M2005 6265 c6 -2 44 -11 85 -20 92 -21 196 -69 277 -129 72 -52 167
-162 159 -183 -3 -8 -2 -12 3 -9 5 3 12 -1 15 -10 5 -13 1 -12 -27 3 -17 10
-34 22 -36 26 -9 23 -106 124 -131 137 -15 8 -38 21 -51 29 -22 13 -23 13 -10
-2 7 -10 10 -17 7 -17 -4 0 2 -10 13 -22 30 -31 101 -177 106 -218 3 -19 5
-75 5 -125 1 -97 -17 -164 -64 -250 -33 -58 -104 -155 -114 -155 -4 0 -25 -16
-45 -35 -20 -19 -46 -35 -57 -35 -11 0 -20 -4 -20 -8 0 -5 -6 -9 -12 -10 -7 0
-33 -6 -58 -12 -25 -6 -63 -9 -85 -5 -56 9 -128 58 -151 103 -10 20 -22 38
-25 40 -12 5 3 77 19 95 20 22 64 22 131 -2 62 -22 94 -16 135 26 29 29 56
108 56 163 0 113 -58 202 -169 260 -56 29 -74 33 -137 33 -130 -1 -230 -55
-315 -173 -46 -63 -80 -187 -73 -264 9 -100 44 -228 81 -299 54 -103 175 -222
274 -270 80 -39 136 -57 126 -40 -4 6 -17 13 -30 17 -13 3 -56 24 -95 47 -72
42 -105 69 -83 69 6 0 11 -4 11 -8 0 -4 13 -15 29 -25 28 -17 29 -16 24 3 -3
11 0 21 6 21 6 1 17 2 24 3 6 1 35 -14 62 -34 28 -20 59 -40 70 -44 25 -9 16
-1 -52 48 -66 47 -104 95 -148 187 -50 107 -64 205 -41 300 35 144 108 249
210 303 69 36 114 35 153 -6 39 -40 53 -76 53 -131 0 -65 -19 -118 -55 -154
-39 -39 -55 -40 -138 -12 -49 17 -67 19 -89 11 -82 -33 -88 -171 -12 -261 128
-149 398 -179 585 -65 323 196 316 711 -13 957 -40 30 -102 69 -137 87 -63 31
-196 71 -235 69 -12 0 -16 -2 -11 -4z m568 -405 c3 -11 1 -18 -4 -14 -5 3 -9
12 -9 20 0 20 7 17 13 -6z m-783 -815 c19 -22 20 -26 5 -15 -24 18 -35 32 -35
44 0 5 1 7 3 5 1 -2 13 -17 27 -34z"/>
<path d="M3782 6154 l-22 -15 0 -620 c0 -594 1 -620 19 -638 46 -46 372 -90
526 -71 108 13 167 32 240 75 110 65 199 184 225 302 16 70 13 219 -5 287 -62
234 -281 375 -522 338 -47 -8 -97 -23 -130 -41 -29 -16 -53 -26 -53 -23 -4
382 -5 393 -24 408 -29 21 -223 20 -254 -2z m73 -14 c-28 -12 -47 -12 -40 0 3
6 18 10 33 9 24 0 25 -1 7 -9z m462 -356 c-9 -9 -76 -10 -71 -2 3 5 21 8 41 8
20 0 34 -3 30 -6z m31 -220 c89 -37 142 -126 142 -240 0 -176 -103 -289 -261
-286 -77 1 -141 16 -158 35 -7 9 -11 87 -12 221 -1 233 -2 232 76 267 51 23
161 25 213 3z m-115 -561 c-7 -2 -19 -2 -25 0 -7 3 -2 5 12 5 14 0 19 -2 13
-5z"/>
<path d="M4892 6154 l-22 -15 0 -639 c0 -567 2 -640 16 -654 22 -23 210 -23
242 0 l22 15 0 644 c0 627 -1 645 -19 655 -32 17 -213 13 -239 -6z m65 -10
c-3 -3 -12 -4 -19 -1 -8 3 -5 6 6 6 11 1 17 -2 13 -5z m71 -1 c-10 -2 -28 -2
-40 0 -13 2 -5 4 17 4 22 1 32 -1 23 -4z"/>
<path d="M6780 6143 c-40 -15 -40 -14 -40 -665 0 -627 0 -627 21 -639 32 -17
237 -8 249 11 6 9 10 263 10 636 0 579 -1 622 -17 636 -19 16 -193 33 -223 21z"/>
<path d="M7520 5825 c-91 -25 -181 -76 -240 -136 -156 -158 -195 -412 -94
-612 35 -69 145 -177 214 -210 202 -98 457 -59 610 94 62 63 113 155 131 239
7 31 9 98 7 159 -4 85 -11 119 -32 172 -52 127 -159 230 -291 279 -79 29 -227
36 -305 15z m201 -236 c205 -62 228 -425 32 -520 -129 -63 -287 6 -328 145
-17 57 -19 155 -5 208 17 61 71 131 120 156 49 25 120 29 181 11z"/>
<path d="M8645 5830 c-111 -23 -198 -73 -275 -157 -194 -212 -183 -543 24
-730 204 -185 549 -171 730 29 144 158 177 389 84 585 -94 201 -338 319 -563
273z m224 -263 c138 -91 160 -324 42 -450 -106 -115 -298 -86 -374 57 -19 35
-22 57 -22 146 0 98 2 109 30 159 49 89 109 122 216 118 53 -2 75 -8 108 -30z"/>
<path d="M5350 5797 l-25 -13 0 -339 c0 -301 2 -346 18 -395 35 -107 122 -194
222 -222 62 -18 202 -15 262 6 28 9 71 35 96 56 l45 40 6 -40 c4 -24 14 -43
25 -50 11 -5 62 -10 115 -10 73 0 98 4 110 16 14 14 16 70 16 473 0 414 -2
460 -17 472 -26 22 -207 25 -238 5 l-25 -16 0 -283 c0 -163 -4 -298 -10 -319
-41 -146 -266 -176 -338 -45 -15 28 -17 70 -20 337 -3 364 6 340 -131 340 -49
0 -97 -6 -111 -13z"/>
<path d="M1980 4915 c14 -8 30 -14 35 -14 6 0 -1 6 -15 14 -14 8 -29 14 -35
14 -5 0 1 -6 15 -14z"/>
<path d="M2038 4893 c7 -3 16 -2 19 1 4 3 -2 6 -13 5 -11 0 -14 -3 -6 -6z"/>
<path d="M1943 4873 c9 -2 23 -2 30 0 6 3 -1 5 -18 5 -16 0 -22 -2 -12 -5z"/>
<path d="M3765 4548 c-3 -8 -4 -103 -3 -213 l3 -200 143 -3 142 -3 0 40 0 40
-92 3 -93 3 -3 48 -3 47 85 0 86 0 0 40 0 40 -85 0 -85 0 0 40 0 40 96 0 95 0
-3 43 -3 42 -138 3 c-106 2 -139 0 -142 -10z"/>
<path d="M4209 4537 c-49 -32 -89 -116 -89 -186 0 -103 34 -172 104 -208 45
-24 133 -22 176 3 41 24 80 77 80 110 0 21 -5 24 -37 24 -31 0 -43 -6 -66 -35
-23 -29 -34 -35 -66 -35 -61 0 -85 34 -89 126 -4 73 -4 74 31 109 51 51 101
45 132 -15 13 -26 21 -30 55 -30 37 0 40 2 40 28 0 37 -33 88 -72 112 -48 29
-153 28 -199 -3z"/>
<path d="M4655 4541 c-157 -95 -133 -366 35 -411 117 -31 216 35 241 163 22
106 -20 210 -102 253 -41 20 -137 18 -174 -5z m144 -84 c22 -19 41 -72 41
-117 0 -62 -24 -108 -64 -125 -42 -18 -74 -9 -105 31 -30 39 -30 150 0 188 36
46 89 55 128 23z"/>
<path d="M5157 4553 c-4 -3 -7 -24 -7 -45 l0 -38 55 0 55 0 0 -170 0 -170 50
0 50 0 0 170 0 170 55 0 55 0 0 45 0 45 -153 0 c-85 0 -157 -3 -160 -7z"/>
<path d="M5618 4540 c-23 -12 -48 -39 -65 -68 -25 -42 -28 -57 -28 -134 0 -80
2 -89 30 -129 43 -61 84 -82 161 -83 54 -1 68 3 105 29 63 44 84 93 84 191 0
72 -3 86 -30 129 -17 26 -46 56 -65 66 -47 26 -142 25 -192 -1z m154 -89 c28
-25 32 -35 36 -93 5 -76 -13 -120 -58 -143 -36 -19 -70 -12 -102 22 -20 22
-23 34 -23 105 0 77 1 80 33 109 41 37 73 37 114 0z"/>
<path d="M5990 4345 l0 -215 50 0 50 0 0 215 0 215 -50 0 -50 0 0 -215z"/>
<path d="M6200 4346 l0 -216 129 0 129 0 4 41 c2 22 2 42 -1 45 -2 2 -41 4
-85 4 l-81 0 0 168 0 167 -47 3 -48 3 0 -215z"/>
<path d="M6550 4345 l0 -215 139 0 139 0 5 33 c2 17 3 35 0 40 -2 4 -44 7 -94
7 l-89 0 0 50 0 50 80 0 80 0 0 40 0 40 -80 0 -80 0 0 40 0 40 91 0 90 0 -3
43 -3 42 -137 3 -138 3 0 -216z"/>
<path d="M6900 4515 l0 -45 55 0 55 0 0 -170 0 -170 45 0 45 0 0 170 0 169 58
3 57 3 0 40 0 40 -157 3 -158 3 0 -46z"/>
<path d="M7457 4553 c-4 -3 -7 -24 -7 -45 l0 -38 55 0 55 0 0 -170 0 -170 50
0 50 0 0 170 0 170 55 0 55 0 0 45 0 45 -153 0 c-85 0 -157 -3 -160 -7z"/>
<path d="M7925 4548 c-21 -56 -145 -410 -145 -414 0 -2 22 -4 48 -4 l48 0 15
48 15 47 74 0 74 0 17 -45 c17 -45 17 -45 69 -48 47 -3 52 -1 47 15 -3 10 -38
107 -78 216 l-73 197 -53 0 c-34 0 -55 -5 -58 -12z m83 -166 c12 -37 22 -71
22 -75 0 -4 -23 -7 -51 -7 -45 0 -50 2 -44 18 4 9 15 43 23 75 9 31 19 57 22
57 3 0 15 -31 28 -68z"/>
<path d="M8269 4553 c0 -5 -2 -101 -4 -215 l-4 -208 110 0 c127 0 169 13 199
62 15 24 20 44 16 71 -4 40 -39 87 -63 87 -7 0 0 12 17 28 44 39 50 89 15 130
-14 17 -43 36 -63 42 -43 11 -222 14 -223 3z m192 -83 c23 -13 25 -53 3 -71
-9 -7 -36 -13 -62 -13 -44 -1 -45 0 -49 33 -3 18 -2 39 1 47 6 17 78 19 107 4z
m21 -181 c34 -40 -3 -79 -74 -79 l-48 0 0 54 0 53 53 -4 c35 -3 57 -11 69 -24z"/>
<path d="M8740 4543 c-44 -23 -73 -76 -66 -122 8 -50 50 -88 125 -111 77 -24
91 -35 91 -66 0 -52 -113 -57 -135 -7 -10 23 -64 41 -84 28 -32 -19 5 -92 62
-122 43 -22 142 -22 184 0 88 46 95 170 13 212 -17 9 -60 25 -95 36 -55 17
-65 23 -65 42 0 13 5 28 12 35 19 19 72 14 101 -8 15 -12 40 -20 62 -20 35 0
37 1 30 28 -3 15 -19 40 -35 57 -26 26 -38 30 -97 33 -51 2 -77 -1 -103 -15z"/>
</g>
</svg>
